<svg width="22" height="22" viewBox="0 0 22 22" fill="none" xmlns="http://www.w3.org/2000/svg">
<path d="M18.6239 3.80948C17.2217 3.16609 15.7181 2.69206 14.1459 2.42057C14.1173 2.41533 14.0887 2.42843 14.0739 2.45462C13.8805 2.79856 13.6663 3.24727 13.5163 3.59995C11.8254 3.3468 10.1431 3.3468 8.48679 3.59995C8.33676 3.23943 8.11478 2.79856 7.92053 2.45462C7.90578 2.4293 7.87718 2.41621 7.84855 2.42057C6.27725 2.6912 4.7736 3.16522 3.37052 3.80948C3.35838 3.81472 3.34797 3.82345 3.34106 3.83479C0.488942 8.09579 -0.292371 12.2521 0.0909151 16.3568C0.0926494 16.3769 0.103922 16.3961 0.119532 16.4083C2.00127 17.7902 3.82406 18.6291 5.61301 19.1852C5.64164 19.194 5.67197 19.1835 5.69019 19.1599C6.11337 18.582 6.49059 17.9727 6.81402 17.3319C6.83311 17.2944 6.81489 17.2498 6.77588 17.235C6.17754 17.008 5.6078 16.7313 5.05975 16.417C5.0164 16.3917 5.01293 16.3297 5.05281 16.3C5.16814 16.2136 5.2835 16.1237 5.39363 16.0329C5.41355 16.0163 5.44131 16.0128 5.46474 16.0233C9.06518 17.6671 12.9631 17.6671 16.521 16.0233C16.5445 16.012 16.5722 16.0155 16.593 16.032C16.7032 16.1228 16.8185 16.2136 16.9347 16.3C16.9746 16.3297 16.972 16.3917 16.9286 16.417C16.3806 16.7374 15.8108 17.008 15.2116 17.2341C15.1726 17.249 15.1553 17.2944 15.1744 17.3319C15.5047 17.9718 15.882 18.5811 16.2973 19.159C16.3147 19.1835 16.3459 19.194 16.3745 19.1852C18.1721 18.6291 19.9949 17.7902 21.8766 16.4083C21.8931 16.3961 21.9035 16.3777 21.9053 16.3577C22.364 11.6121 21.1369 7.48995 18.6525 3.83566C18.6465 3.82345 18.6361 3.81472 18.6239 3.80948ZM7.35169 13.8574C6.26771 13.8574 5.37454 12.8623 5.37454 11.6401C5.37454 10.4179 6.25039 9.42273 7.35169 9.42273C8.46163 9.42273 9.34616 10.4266 9.32881 11.6401C9.32881 12.8623 8.45296 13.8574 7.35169 13.8574ZM14.6619 13.8574C13.5779 13.8574 12.6847 12.8623 12.6847 11.6401C12.6847 10.4179 13.5606 9.42273 14.6619 9.42273C15.7718 9.42273 16.6563 10.4266 16.639 11.6401C16.639 12.8623 15.7718 13.8574 14.6619 13.8574Z" fill="white"/>
</svg>
