<svg width="439" height="143" viewBox="0 0 439 143" fill="none" xmlns="http://www.w3.org/2000/svg">
<rect width="439" height="143" rx="16" fill="#5865F2"/>
<g clip-path="url(#clip0_138_183)">
<path d="M170.755 55.1631H186.695C190.537 55.1631 193.787 55.7625 196.446 56.9614C198.894 57.9905 200.972 59.7371 202.407 61.9711C203.751 64.178 204.439 66.7213 204.392 69.3046C204.422 71.8997 203.707 74.4488 202.331 76.6497C200.797 78.9747 198.603 80.7883 196.031 81.8579C193.213 83.1424 189.72 83.7827 185.551 83.7788H170.755V55.1631ZM185.387 76.4979C187.976 76.4979 189.965 75.8517 191.355 74.5594C192.059 73.8761 192.61 73.0502 192.969 72.1368C193.329 71.2235 193.489 70.2439 193.439 69.2637C193.482 68.3538 193.34 67.4445 193.021 66.5913C192.702 65.7381 192.212 64.9588 191.582 64.3007C190.337 63.0629 188.462 62.4421 185.959 62.4382H180.973V76.4979H185.387Z" fill="white"/>
<path d="M228.261 83.7322C226.158 83.2052 224.147 82.3648 222.294 81.239V74.4544C223.911 75.6309 225.733 76.4979 227.666 77.0118C229.78 77.6569 231.977 77.9932 234.187 78.0102C234.95 78.0509 235.713 77.9192 236.418 77.6248C236.92 77.3679 237.171 77.041 237.171 76.7023C237.176 76.5131 237.143 76.3248 237.073 76.149C237.002 75.9733 236.897 75.8138 236.762 75.6805C236.296 75.3218 235.749 75.0832 235.168 74.9857L230.264 73.8822C227.453 73.2283 225.459 72.3232 224.279 71.1672C223.687 70.57 223.226 69.8563 222.924 69.0712C222.622 68.2862 222.487 67.4471 222.527 66.6071C222.508 65.0848 223.062 63.6109 224.081 62.4791C225.288 61.202 226.81 60.2656 228.495 59.7641C230.662 59.0828 232.926 58.7574 235.198 58.8007C237.318 58.7808 239.433 59.0279 241.492 59.5364C243.155 59.9304 244.752 60.5637 246.233 61.4164V67.8391C244.844 67.0333 243.351 66.4223 241.795 66.0232C240.11 65.5714 238.373 65.3436 236.628 65.3459C234.067 65.3459 232.786 65.7819 232.786 66.6538C232.782 66.848 232.835 67.0391 232.939 67.2032C233.043 67.3673 233.193 67.4971 233.37 67.5763C234.07 67.8739 234.803 68.0856 235.554 68.2069L239.641 68.9426C242.296 69.4097 244.275 70.2271 245.579 71.3949C246.883 72.5626 247.537 74.2714 247.541 76.5213C247.561 77.7044 247.272 78.8723 246.702 79.9089C246.131 80.9455 245.299 81.8147 244.289 82.4301C242.136 83.8743 239.063 84.5944 235.069 84.5905C232.773 84.594 230.485 84.3056 228.261 83.7322Z" fill="white"/>
<path d="M257.198 82.8739C255.013 81.8699 253.171 80.2455 251.902 78.2029C250.719 76.1998 250.112 73.9082 250.151 71.5818C250.115 69.2568 250.754 66.9713 251.99 65.0015C253.307 62.991 255.182 61.4082 257.385 60.4473C260.063 59.2801 262.965 58.7141 265.886 58.7891C269.973 58.7891 273.366 59.6473 276.063 61.3639V68.8551C275.037 68.1652 273.916 67.6282 272.735 67.2611C271.413 66.8438 270.034 66.6369 268.648 66.648C266.114 66.648 264.131 67.1112 262.698 68.0376C262.054 68.397 261.517 68.9206 261.141 69.555C260.765 70.1894 260.564 70.9121 260.558 71.6494C260.552 72.3868 260.742 73.1127 261.107 73.753C261.473 74.3934 262.002 74.9255 262.64 75.2952C264.029 76.2333 266.046 76.7024 268.689 76.7024C270.053 76.7056 271.41 76.5089 272.717 76.1185C273.91 75.7766 275.055 75.2883 276.127 74.6646V81.9047C272.968 83.7467 269.361 84.6802 265.705 84.6022C262.775 84.6822 259.865 84.091 257.198 82.8739Z" fill="white"/>
<path d="M286.24 82.8739C284.03 81.8649 282.156 80.2439 280.839 78.2029C279.598 76.2045 278.954 73.8931 278.982 71.5409C278.943 69.2165 279.588 66.9319 280.839 64.9723C282.163 62.9831 284.029 61.4148 286.216 60.4531C291.589 58.2731 297.601 58.2731 302.974 60.4531C305.152 61.4075 307.011 62.968 308.328 64.9489C309.57 66.9158 310.209 69.2032 310.167 71.5292C310.196 73.8791 309.558 76.189 308.328 78.1912C307.025 80.2337 305.16 81.8558 302.956 82.8622C300.315 83.9948 297.472 84.5788 294.598 84.5788C291.724 84.5788 288.881 83.9948 286.24 82.8622V82.8739ZM298.659 75.6221C299.164 75.1008 299.557 74.4818 299.814 73.8031C300.071 73.1243 300.187 72.4002 300.154 71.6751C300.189 70.9569 300.074 70.2391 299.817 69.5676C299.559 68.8961 299.165 68.2856 298.659 67.7749C298.11 67.2712 297.465 66.883 296.763 66.6332C296.061 66.3835 295.316 66.2773 294.572 66.321C293.828 66.2819 293.084 66.3902 292.383 66.6397C291.681 66.8893 291.036 67.275 290.485 67.7749C289.98 68.2867 289.587 68.8976 289.331 69.5689C289.075 70.2402 288.961 70.9574 288.996 71.6751C288.963 72.3997 289.078 73.1232 289.334 73.8018C289.59 74.4804 289.981 75.0998 290.485 75.6221C291.031 76.1321 291.674 76.5267 292.377 76.7825C293.079 77.0383 293.825 77.15 294.572 77.111C295.318 77.1545 296.066 77.0448 296.769 76.7888C297.472 76.5327 298.115 76.1357 298.659 75.6221Z" fill="white"/>
<path d="M334.731 60.3013V69.1412C333.51 68.4131 332.104 68.0579 330.684 68.1194C328.507 68.1194 326.825 68.785 325.657 70.1046C324.489 71.4241 323.906 73.4735 323.906 76.2528V83.7731H313.892V59.8634H323.701V67.4538C324.246 64.6745 325.126 62.6251 326.34 61.3056C326.929 60.6567 327.652 60.1432 328.458 59.8005C329.264 59.4578 330.136 59.294 331.011 59.3204C332.319 59.2847 333.61 59.6251 334.731 60.3013Z" fill="white"/>
<path d="M368 54.3457V83.773H357.987V78.4014C357.232 80.3137 355.875 81.9286 354.121 83.0023C352.186 84.1051 349.984 84.6545 347.757 84.5905C345.662 84.6393 343.599 84.0641 341.831 82.9381C340.119 81.8258 338.755 80.2535 337.896 78.4014C336.958 76.357 336.491 74.1283 336.529 71.8795C336.463 69.5479 336.96 67.2347 337.977 65.1357C338.912 63.2132 340.372 61.594 342.187 60.4647C344.053 59.3342 346.2 58.7533 348.382 58.789C353.146 58.789 356.348 60.8598 357.987 65.0014V54.3457H368ZM356.515 75.482C357.026 74.9797 357.426 74.3766 357.69 73.7111C357.955 73.0456 358.077 72.3323 358.051 71.6167C358.073 70.9226 357.947 70.2317 357.682 69.5896C357.418 68.9476 357.02 68.3688 356.515 67.8916C355.37 66.9589 353.938 66.4497 352.46 66.4497C350.983 66.4497 349.551 66.9589 348.405 67.8916C347.902 68.3798 347.507 68.9685 347.247 69.6194C346.986 70.2703 346.866 70.9687 346.893 71.6693C346.867 72.3764 346.99 73.0811 347.254 73.7378C347.517 74.3945 347.916 74.9887 348.423 75.482C348.959 75.9807 349.59 76.3672 350.278 76.6188C350.965 76.8705 351.697 76.9822 352.428 76.9475C353.173 76.9887 353.918 76.8802 354.62 76.6285C355.322 76.3767 355.967 75.9869 356.515 75.482Z" fill="white"/>
<path d="M133.883 48.0808C129.006 45.8478 123.857 44.2637 118.568 43.3689C117.845 44.6627 117.19 45.9938 116.606 47.3568C110.973 46.5078 105.244 46.5078 99.6099 47.3568C99.0263 45.994 98.3715 44.6629 97.648 43.3689C92.3557 44.2713 87.2035 45.8592 82.3213 48.0925C72.629 62.4324 70.0015 76.4163 71.3152 90.2016C76.9913 94.3953 83.3445 97.5847 90.0985 99.6312C91.6193 97.5857 92.9651 95.4158 94.1214 93.1443C91.9251 92.324 89.8052 91.3119 87.7864 90.1198C88.3177 89.7345 88.8373 89.3374 89.3395 88.9521C95.2138 91.7146 101.625 93.147 108.117 93.147C114.608 93.147 121.02 91.7146 126.894 88.9521C127.402 89.3666 127.922 89.7637 128.447 90.1198C126.425 91.3139 124.301 92.3279 122.101 93.1501C123.256 95.4206 124.602 97.5887 126.124 99.6312C132.883 97.5929 139.242 94.405 144.919 90.2074C146.46 74.2209 142.285 60.3655 133.883 48.0808ZM95.7855 81.7237C92.1246 81.7237 89.1001 78.4014 89.1001 74.3143C89.1001 70.2272 92.0195 66.8757 95.7738 66.8757C99.5281 66.8757 102.529 70.2272 102.465 74.3143C102.401 78.4014 99.5164 81.7237 95.7855 81.7237ZM120.448 81.7237C116.782 81.7237 113.769 78.4014 113.769 74.3143C113.769 70.2272 116.688 66.8757 120.448 66.8757C124.209 66.8757 127.186 70.2272 127.122 74.3143C127.058 78.4014 124.179 81.7237 120.448 81.7237Z" fill="white"/>
<path d="M212.835 62.409C215.592 62.409 217.827 60.4014 217.827 57.9248C217.827 55.4483 215.592 53.4407 212.835 53.4407C210.078 53.4407 207.843 55.4483 207.843 57.9248C207.843 60.4014 210.078 62.409 212.835 62.409Z" fill="white"/>
<path d="M207.837 65.4978C209.418 66.1625 211.117 66.5048 212.832 66.5048C214.547 66.5048 216.246 66.1625 217.827 65.4978V83.9016H207.837V65.4978Z" fill="white"/>
</g>
<defs>
<clipPath id="clip0_138_183">
<rect width="297" height="56.2623" fill="white" transform="translate(71 43.3689)"/>
</clipPath>
</defs>
</svg>
