<svg width="439" height="141" viewBox="0 0 439 141" fill="none" xmlns="http://www.w3.org/2000/svg">
<rect width="439" height="141" rx="16" fill="url(#paint0_radial_138_209)"/>
<rect width="439" height="141" rx="16" fill="url(#paint1_radial_138_209)"/>
<path d="M86.2857 28.6694C80.2068 31.2139 73.5242 38.4025 71.4136 47.4257C68.7406 58.8585 79.8639 63.693 80.7762 62.1079C81.85 60.2452 78.7831 59.6154 78.1518 53.6835C77.3358 46.022 80.8976 37.4612 85.3803 33.7049C86.2135 33.0071 86.1739 33.9784 86.1739 35.7751C86.1739 38.9879 85.9964 67.8297 85.9964 73.8491C85.9964 81.9939 85.66 84.566 85.0558 87.1074C84.4436 89.683 83.4594 91.4232 84.2052 92.0936C85.0384 92.8434 88.5959 91.0598 90.6554 88.1854C93.125 84.738 93.9895 80.5979 94.1447 76.1017C94.3321 70.6818 94.3242 62.0815 94.3322 57.176C94.3397 52.6769 94.4079 39.5025 94.2533 31.5825C94.2154 29.6399 88.8278 27.6018 86.2854 28.6671M302.145 66.7869C301.949 71.0213 301.011 74.331 299.848 76.6655C297.596 81.185 292.923 82.5883 290.939 76.0914C289.858 72.5499 289.807 66.6353 290.584 61.6933C291.376 56.6587 293.585 52.8565 297.244 53.1994C300.853 53.5384 302.542 58.1886 302.145 66.7869ZM241.307 93.0578C241.258 100.093 240.15 106.262 237.776 108.054C234.408 110.594 229.881 108.689 230.819 103.555C231.648 99.0116 235.57 94.372 241.316 88.7031C241.316 88.7031 241.328 89.9959 241.307 93.0578ZM240.387 66.7459C240.181 70.6026 239.181 74.4769 238.09 76.666C235.839 81.1855 231.132 82.5983 229.181 76.0919C227.847 71.6465 228.167 65.8929 228.827 62.2676C229.683 57.564 231.759 53.2004 235.486 53.2004C239.111 53.2004 240.898 57.1763 240.387 66.7459ZM205.143 66.687C204.922 70.7715 204.125 74.186 202.847 76.666C200.533 81.1544 195.956 82.5778 193.937 76.0919C192.482 71.4151 192.978 65.0381 193.583 61.5932C194.481 56.4813 196.731 52.857 200.243 53.2004C203.85 53.5528 205.604 58.1886 205.143 66.687ZM366.656 71.4579C365.775 71.4579 365.372 72.3669 365.039 73.8969C363.885 79.2169 362.671 80.4181 361.106 80.4181C359.357 80.4181 357.786 77.7839 357.382 72.5107C357.064 68.3642 357.115 60.7305 357.521 53.137C357.604 51.5768 357.174 50.0331 352.989 48.5129C351.189 47.859 348.571 46.8962 347.268 50.0421C343.586 58.9298 342.145 65.9859 341.806 68.8524C341.788 69.0007 341.606 69.031 341.574 68.6844C341.358 66.3886 340.876 62.2167 340.816 53.4514C340.804 51.7412 340.442 50.2855 338.554 49.0938C337.329 48.3204 333.61 46.9527 332.271 48.5799C331.11 49.9106 329.767 53.4919 328.37 57.7371C327.236 61.1874 326.445 63.5215 326.445 63.5215C326.445 63.5215 326.46 54.2118 326.474 50.6805C326.48 49.3482 325.566 48.9043 325.291 48.8238C324.05 48.4639 321.607 47.8625 320.57 47.8625C319.29 47.8625 318.976 48.5779 318.976 49.6202C318.976 49.7566 318.774 61.8773 318.774 70.3526C318.774 70.7207 318.774 71.1224 318.778 71.549C318.07 75.4444 315.775 80.7322 313.278 80.7322C310.779 80.7322 309.599 78.5215 309.599 68.4177C309.599 62.5233 309.776 59.9603 309.863 55.6972C309.914 53.2417 310.011 51.356 310.006 50.9281C309.988 49.6159 307.718 48.9545 306.663 48.7101C305.602 48.4636 304.68 48.3681 303.96 48.4091C302.941 48.4666 302.22 49.135 302.22 50.0543C302.22 50.5472 302.226 51.4845 302.226 51.4845C300.914 49.4224 298.803 47.9872 297.399 47.5713C293.617 46.448 289.67 47.4433 286.693 51.609C284.327 54.9188 282.901 58.6676 282.339 64.0535C281.929 67.9911 282.063 71.984 282.792 75.3608C281.911 79.1711 280.275 80.7322 278.483 80.7322C275.882 80.7322 273.997 76.4868 274.216 69.1445C274.36 64.3152 275.326 60.9261 276.383 56.0231C276.833 53.933 276.467 52.8387 275.549 51.7899C274.707 50.8281 272.914 50.3367 270.335 50.9411C268.499 51.372 265.873 51.8354 263.47 52.1914C263.47 52.1914 263.615 51.613 263.734 50.5932C264.359 45.2452 258.548 45.6791 256.694 47.3873C255.587 48.4071 254.833 49.6099 254.547 51.7724C254.094 55.2043 256.893 56.823 256.893 56.823C255.975 61.0266 253.724 66.518 251.4 70.4882C250.155 72.6154 249.202 74.1916 247.973 75.8672C247.969 75.2433 247.965 74.6194 247.963 73.9984C247.935 65.1606 248.053 58.205 248.105 55.698C248.155 53.2425 248.254 51.4069 248.248 50.979C248.234 50.0191 247.674 49.6567 246.508 49.1978C245.477 48.7919 244.258 48.5109 242.994 48.413C241.398 48.2885 240.437 49.1348 240.462 50.1356C240.467 50.3246 240.467 51.4849 240.467 51.4849C239.155 49.4227 237.044 47.9876 235.64 47.5716C231.858 46.4488 227.911 47.4441 224.934 51.6093C222.568 54.9192 221.019 59.5638 220.58 64.0129C220.171 68.1595 220.247 71.6834 220.804 74.6518C220.203 77.6242 218.474 80.7326 216.519 80.7326C214.019 80.7326 212.597 78.5219 212.597 68.418C212.597 62.5237 212.774 59.9607 212.861 55.698C212.911 53.2425 213.009 51.3564 213.003 50.929C212.985 49.6167 210.716 48.9553 209.66 48.7104C208.555 48.4549 207.601 48.361 206.869 48.4149C205.903 48.4869 205.223 49.3523 205.223 49.9977V51.4849C203.911 49.4227 201.801 47.9876 200.396 47.5716C196.614 46.4488 192.689 47.4602 189.69 51.6093C187.735 54.3148 186.152 57.3142 185.337 63.9539C185.101 65.8727 184.997 67.6694 185.011 69.3489C184.231 74.118 180.787 79.6148 177.969 79.6148C176.321 79.6148 174.75 76.417 174.75 69.6018C174.75 60.5236 175.312 47.5981 175.407 46.3524C175.407 46.3524 178.967 46.2919 179.656 46.2839C181.432 46.2644 183.04 46.3064 185.405 46.1854C186.591 46.1249 187.734 41.8677 186.51 41.3409C185.955 41.1024 182.033 40.8934 180.479 40.8604C179.171 40.8308 175.532 40.5615 175.532 40.5615C175.532 40.5615 175.859 31.9822 175.935 31.0759C175.999 30.3205 175.022 29.9316 174.461 29.6956C173.099 29.1192 171.879 28.8433 170.434 28.5453C168.438 28.1334 167.532 28.5363 167.355 30.2215C167.088 32.779 166.95 40.27 166.95 40.27C165.485 40.27 160.48 39.9836 159.014 39.9836C157.653 39.9836 156.183 45.84 158.066 45.9119C160.232 45.9959 164.006 46.0684 166.509 46.1439C166.509 46.1439 166.397 59.2823 166.397 63.3385C166.397 63.7701 166.401 64.1856 166.402 64.5889C165.025 71.7675 160.174 75.6452 160.174 75.6452C161.216 70.8961 159.087 67.3298 155.254 64.3109C153.842 63.1985 151.054 61.0924 147.935 58.7845C147.935 58.7845 149.741 57.0039 151.343 53.4216C152.479 50.8841 152.528 47.9801 149.741 47.3398C145.137 46.281 141.341 49.6623 140.209 53.2721C139.331 56.0685 139.799 58.1436 141.518 60.2992C141.643 60.4567 141.779 60.6176 141.92 60.7796C140.881 62.7828 139.453 65.4798 138.244 67.5713C134.887 73.3781 132.352 77.9712 130.436 77.9712C128.904 77.9712 128.924 73.308 128.924 68.942C128.924 65.1781 129.202 59.5194 129.424 53.6605C129.498 51.7229 128.529 50.6191 126.905 49.6193C125.918 49.0119 123.812 47.8177 122.592 47.8177C120.766 47.8177 115.499 48.0661 110.522 62.4628C109.895 64.2774 108.663 67.5838 108.663 67.5838L108.769 50.2712C108.769 49.8653 108.552 49.4728 108.057 49.2044C107.219 48.749 104.979 47.8177 102.987 47.8177C102.038 47.8177 101.564 48.2591 101.564 49.1389L101.391 76.2246C101.391 78.2826 101.444 80.6834 101.648 81.7335C101.85 82.7849 102.179 83.6402 102.586 84.1491C102.992 84.657 103.462 85.0444 104.236 85.2043C104.957 85.3527 108.905 85.8597 109.11 84.351C109.356 82.5429 109.366 80.5873 111.439 73.2936C114.666 61.9384 118.874 56.398 120.852 54.4304C121.198 54.0864 121.593 54.0659 121.574 54.6288C121.489 57.1183 121.192 63.3391 120.992 68.6241C120.456 82.7673 123.029 85.3888 126.706 85.3888C129.519 85.3888 133.484 82.5938 137.735 75.5187C140.385 71.1097 142.958 66.7864 144.806 63.6705C146.095 64.8631 147.54 66.1467 148.985 67.5178C152.342 70.7043 153.445 73.7321 152.713 76.6045C152.154 78.8004 150.047 81.0634 146.298 78.8639C145.205 78.2222 144.739 77.7264 143.64 77.0029C143.05 76.6143 142.148 76.4981 141.608 76.9053C140.204 77.9636 139.402 79.3099 138.943 80.9765C138.497 82.5983 140.121 83.4556 141.805 84.2054C143.255 84.8508 146.371 85.4356 148.358 85.5022C156.1 85.7611 162.303 81.7639 166.62 71.453C167.393 80.3577 170.682 85.3967 176.397 85.3967C180.218 85.3967 184.049 80.4581 185.724 75.5997C186.205 77.5801 186.917 79.3023 187.836 80.7586C192.24 87.7358 200.782 86.2341 205.074 80.3093C206.4 78.4786 206.602 77.8208 206.602 77.8208C207.228 83.4152 211.733 85.3698 214.313 85.3698C217.202 85.3698 220.185 84.0041 222.275 79.2975C222.52 79.8083 222.788 80.2961 223.08 80.7585C227.483 87.7356 236.026 86.2339 240.317 80.3092C240.52 80.0313 240.695 79.7792 240.849 79.5529L240.975 83.2275C240.975 83.2275 238.527 85.4732 237.024 86.8509C230.41 92.9187 225.381 97.5223 225.011 102.883C224.536 109.719 230.08 112.259 234.274 112.592C238.729 112.946 242.543 110.485 244.887 107.042C246.949 104.011 248.299 97.4878 248.2 91.045C248.161 88.4651 248.096 85.1847 248.045 81.6684C250.369 78.9689 252.988 75.5571 255.4 71.5634C258.028 67.2111 260.844 61.3664 262.286 56.8177C262.286 56.8177 264.733 56.8388 267.345 56.6678C268.18 56.6133 268.42 56.7837 268.266 57.3961C268.079 58.136 264.966 70.1426 267.807 78.1411C269.752 83.6165 274.136 85.3781 276.735 85.3781C279.777 85.3781 282.687 83.0805 284.247 79.6688C284.435 80.0491 284.631 80.4172 284.846 80.757C289.25 87.7341 297.762 86.2234 302.084 80.3077C303.059 78.973 303.612 77.8191 303.612 77.8191C304.54 83.609 309.042 85.3976 311.621 85.3976C314.308 85.3976 316.857 84.2963 318.926 79.4018C319.012 81.5568 319.148 83.319 319.363 83.8746C319.494 84.2143 320.257 84.6408 320.813 84.8468C323.27 85.7581 325.777 85.3272 326.704 85.1397C327.347 85.0097 327.847 84.4944 327.916 83.1636C328.096 79.6693 327.985 73.7984 329.045 69.4352C330.823 62.1127 332.482 59.2723 333.268 57.8661C333.709 57.0782 334.206 56.9482 334.224 57.7821C334.261 59.4692 334.345 64.4238 335.034 71.0804C335.539 75.9762 336.215 78.8699 336.735 79.7857C338.217 82.4047 340.048 82.5287 341.538 82.5287C342.487 82.5287 344.47 82.2667 344.292 80.6C344.206 79.7877 344.357 74.7672 346.11 67.5531C347.255 62.8421 349.164 58.5853 349.852 57.0292C350.106 56.4553 350.224 56.9077 350.22 56.9958C350.075 60.2402 349.75 70.8521 351.071 76.656C352.863 84.5184 358.046 85.3982 359.852 85.3982C363.708 85.3982 366.861 82.4652 367.924 74.7478C368.18 72.8906 367.801 71.4565 366.665 71.4565" fill="white"/>
<defs>
<radialGradient id="paint0_radial_138_209" cx="0" cy="0" r="1" gradientUnits="userSpaceOnUse" gradientTransform="translate(370.955 160.035) rotate(-146.371) scale(312.651 547.615)">
<stop offset="0.24392" stop-color="#FF1B90"/>
<stop offset="0.436673" stop-color="#F80261"/>
<stop offset="0.688476" stop-color="#ED00C0"/>
<stop offset="0.776787" stop-color="#C500E9"/>
<stop offset="0.893155" stop-color="#7017FF"/>
</radialGradient>
<radialGradient id="paint1_radial_138_209" cx="0" cy="0" r="1" gradientUnits="userSpaceOnUse" gradientTransform="translate(159.138 136.135) rotate(-26.7018) scale(156.267 143.845)">
<stop stop-color="#FFD600"/>
<stop offset="0.484375" stop-color="#FF6930"/>
<stop offset="0.734375" stop-color="#FE3B36"/>
<stop offset="1" stop-color="#FE3B36" stop-opacity="0"/>
</radialGradient>
</defs>
</svg>
